<?xml version="1.0" encoding="UTF-8" standalone="no"?>
<svg width="25px" height="24px" viewBox="0 0 25 24" version="1.1" xmlns="http://www.w3.org/2000/svg" xmlns:xlink="http://www.w3.org/1999/xlink">
    <!-- Generator: Sketch 3.8.3 (29802) - http://www.bohemiancoding.com/sketch -->
    <title>Google+</title>
    <desc>Created with Sketch.</desc>
    <defs></defs>
    <g id="News-article" stroke="none" stroke-width="1" fill="none" fill-rule="evenodd">
        <g id="Desktop-News-Article" transform="translate(-273.000000, -1361.000000)" fill="#10308B">
            <g id="Group-3" transform="translate(200.000000, 1305.000000)">
                <g id="Group-2" transform="translate(1.000000, 56.000000)">
                    <path d="M91.4,0 L77.4,0 C74.639,0 72.4,2.239 72.4,5 L72.4,19 C72.4,21.761 74.639,24 77.4,24 L91.4,24 C94.162,24 96.4,21.761 96.4,19 L96.4,5 C96.4,2.239 94.162,0 91.4,0 L91.4,0 Z M81.067,16.667 C78.486,16.667 76.4,14.58 76.4,12 C76.4,9.42 78.486,7.333 81.067,7.333 C82.327,7.333 83.38,7.793 84.194,8.553 L82.927,9.773 C82.58,9.44 81.973,9.053 81.067,9.053 C79.474,9.053 78.174,10.373 78.174,12 C78.174,13.627 79.474,14.947 81.067,14.947 C82.914,14.947 83.607,13.62 83.714,12.934 L81.067,12.934 L81.067,11.334 L85.473,11.334 C85.514,11.567 85.547,11.801 85.547,12.107 C85.546,14.773 83.76,16.667 81.067,16.667 L81.067,16.667 Z M92.4,12.667 L90.4,12.667 L90.4,14.667 L89.066,14.667 L89.066,12.667 L87.066,12.667 L87.066,11.334 L89.066,11.334 L89.066,9.334 L90.4,9.334 L90.4,11.334 L92.4,11.334 L92.4,12.667 L92.4,12.667 Z" id="Google+"></path>
                </g>
            </g>
        </g>
    </g>
</svg>