<?xml version="1.0" encoding="UTF-8" standalone="no"?>
<svg width="25px" height="25px" viewBox="0 0 25 25" version="1.1" xmlns="http://www.w3.org/2000/svg" xmlns:xlink="http://www.w3.org/1999/xlink">
    <!-- Generator: Sketch 3.8.3 (29802) - http://www.bohemiancoding.com/sketch -->
    <title>Instagram</title>
    <desc>Created with Sketch.</desc>
    <defs></defs>
    <g id="Symbols" stroke="none" stroke-width="1" fill="none" fill-rule="evenodd" fill-opacity="0.687528306">
        <g id="Footer-Desktop" transform="translate(-1093.000000, -328.000000)" fill="#FFFFFF">
            <g id="Footer">
                <g id="Group-2" transform="translate(985.000000, 327.881653)">
                    <path d="M127.6,1 L113.6,1 C110.839,1 108.6,3.239 108.6,6 L108.6,20 C108.6,22.761 110.839,25 113.6,25 L127.6,25 C130.362,25 132.6,22.761 132.6,20 L132.6,6 C132.6,3.239 130.362,1 127.6,1 L127.6,1 Z M128.6,17.852 C128.6,19.59 127.19,21 125.452,21 L115.79,21 C114.051,21 112.6,19.59 112.6,17.852 L112.6,11 L117.098,11 C116.736,11.609 116.517,12.313 116.517,13.073 C116.517,15.322 118.341,17.146 120.59,17.146 C122.839,17.146 124.663,15.322 124.663,13.073 C124.663,12.313 124.444,11.609 124.083,11 L128.6,11 L128.6,17.852 L128.6,17.852 Z M117.452,13.073 C117.452,12.134 117.868,11.29 118.524,10.715 C118.754,10.513 119.014,10.344 119.295,10.216 C119.69,10.036 120.128,9.936 120.589,9.936 C121.05,9.936 121.488,10.037 121.882,10.216 C122.165,10.344 122.425,10.513 122.655,10.715 C123.309,11.29 123.725,12.134 123.725,13.073 C123.725,14.803 122.319,16.211 120.588,16.211 C118.86,16.21 117.452,14.803 117.452,13.073 L117.452,13.073 Z M128.6,10.333 L123.597,10.333 C122.823,9.483 121.738,9 120.59,9 C119.448,9 118.36,9.479 117.582,10.333 L112.6,10.333 L112.6,8.148 C112.6,7.096 113.132,6.17 113.933,5.599 L113.933,8.334 L114.6,8.334 L114.6,5.231 C114.812,5.147 115.036,5.089 115.267,5.051 L115.267,8.333 L115.934,8.333 L115.934,5 L116.6,5 L116.6,8.333 L117.267,8.333 L117.267,5 L125.452,5 C127.19,5 128.6,6.41 128.6,8.148 L128.6,10.333 L128.6,10.333 Z M118.281,13.073 C118.281,11.792 119.319,10.754 120.6,10.754 C121.881,10.754 122.918,11.792 122.918,13.073 C122.918,14.354 121.881,15.392 120.6,15.392 C119.319,15.392 118.281,14.354 118.281,13.073 L118.281,13.073 Z M127.266,6.823 L127.266,8.51 C127.266,8.781 127.045,9 126.77,9 L125.096,9 C124.823,9 124.6,8.781 124.6,8.51 L124.6,6.823 C124.6,6.552 124.823,6.333 125.096,6.333 L126.77,6.333 C127.045,6.333 127.266,6.552 127.266,6.823 L127.266,6.823 Z" id="Instagram"></path>
                </g>
            </g>
        </g>
    </g>
</svg>