<?xml version="1.0" encoding="UTF-8" standalone="no"?>
<svg width="24px" height="24px" viewBox="0 0 24 24" version="1.1" xmlns="http://www.w3.org/2000/svg" xmlns:xlink="http://www.w3.org/1999/xlink">
    <!-- Generator: Sketch 3.8.3 (29802) - http://www.bohemiancoding.com/sketch -->
    <title>Pinterest</title>
    <desc>Created with Sketch.</desc>
    <defs></defs>
    <g id="News-article" stroke="none" stroke-width="1" fill="none" fill-rule="evenodd">
        <g id="Desktop-News-Article" transform="translate(-382.000000, -1361.000000)" fill="#10308B">
            <g id="Group-3" transform="translate(200.000000, 1305.000000)">
                <g id="Group-2" transform="translate(1.000000, 56.000000)">
                    <path d="M200,0 L186,0 C183.239,0 181,2.239 181,5 L181,19 C181,21.761 183.239,24 186,24 L200,24 C202.762,24 205,21.761 205,19 L205,5 C205,2.239 202.762,0 200,0 L200,0 Z M193,20 C192.175,20 191.38,19.875 190.631,19.643 C190.957,19.112 191.444,18.241 191.625,17.545 L192.124,15.644 C192.385,16.142 193.147,16.562 193.957,16.562 C196.371,16.562 198.109,14.343 198.109,11.586 C198.109,8.943 195.952,6.966 193.176,6.966 C189.724,6.966 187.89,9.283 187.89,11.807 C187.89,12.981 188.515,14.441 189.514,14.907 C189.665,14.977 189.746,14.946 189.782,14.8 L190.004,13.893 C190.023,13.812 190.014,13.743 189.948,13.663 C189.617,13.263 189.353,12.525 189.353,11.838 C189.353,10.073 190.689,8.366 192.965,8.366 C194.93,8.366 196.306,9.705 196.306,11.621 C196.306,13.785 195.213,15.284 193.791,15.284 C193.005,15.284 192.417,14.635 192.606,13.838 C192.832,12.887 193.269,11.861 193.269,11.174 C193.269,10.56 192.939,10.047 192.257,10.047 C191.454,10.047 190.809,10.878 190.809,11.99 C190.809,12.699 191.048,13.178 191.048,13.178 C191.048,13.178 190.255,16.531 190.11,17.155 C189.949,17.846 190.012,18.817 190.082,19.449 C187.108,18.284 185,15.389 185,12 C185,7.582 188.582,4 193,4 C197.418,4 201,7.582 201,12 C201,16.418 197.418,20 193,20 L193,20 Z" id="Pinterest"></path>
                </g>
            </g>
        </g>
    </g>
</svg>