<?xml version="1.0" encoding="UTF-8" standalone="no"?>
<svg width="25px" height="24px" viewBox="0 0 25 24" version="1.1" xmlns="http://www.w3.org/2000/svg" xmlns:xlink="http://www.w3.org/1999/xlink">
    <!-- Generator: Sketch 3.8.3 (29802) - http://www.bohemiancoding.com/sketch -->
    <title>Twitter</title>
    <desc>Created with Sketch.</desc>
    <defs></defs>
    <g id="News-article" stroke="none" stroke-width="1" fill="none" fill-rule="evenodd">
        <g id="Desktop-News-Article" transform="translate(-237.000000, -1361.000000)" fill="#10308B">
            <g id="Group-3" transform="translate(200.000000, 1305.000000)">
                <g id="Group-2" transform="translate(1.000000, 56.000000)">
                    <path d="M55.2,0 L41.2,0 C38.439,0 36.2,2.239 36.2,5 L36.2,19 C36.2,21.761 38.439,24 41.2,24 L55.2,24 C57.962,24 60.2,21.761 60.2,19 L60.2,5 C60.2,2.239 57.962,0 55.2,0 L55.2,0 Z M55.061,9.237 C55.27,13.854 51.827,19.002 45.731,19.002 C43.877,19.002 42.152,18.459 40.699,17.527 C42.441,17.732 44.179,17.249 45.559,16.168 C44.122,16.141 42.91,15.192 42.493,13.888 C43.008,13.986 43.514,13.957 43.975,13.832 C42.396,13.515 41.307,12.093 41.342,10.572 C41.784,10.818 42.291,10.966 42.828,10.983 C41.367,10.006 40.953,8.076 41.812,6.6 C43.431,8.586 45.85,9.893 48.578,10.03 C48.099,7.977 49.658,6 51.777,6 C52.72,6 53.574,6.398 54.172,7.037 C54.92,6.89 55.623,6.617 56.258,6.241 C56.012,7.008 55.492,7.651 54.815,8.057 C55.479,7.977 56.112,7.801 56.7,7.54 C56.261,8.196 55.704,8.774 55.061,9.237 L55.061,9.237 Z" id="Twitter"></path>
                </g>
            </g>
        </g>
    </g>
</svg>