<?xml version="1.0" encoding="UTF-8" standalone="no"?>
<svg width="25px" height="24px" viewBox="0 0 25 24" version="1.1" xmlns="http://www.w3.org/2000/svg" xmlns:xlink="http://www.w3.org/1999/xlink">
    <!-- Generator: Sketch 3.8.3 (29802) - http://www.bohemiancoding.com/sketch -->
    <title>Shape</title>
    <desc>Created with Sketch.</desc>
    <defs></defs>
    <g id="News-article" stroke="none" stroke-width="1" fill="none" fill-rule="evenodd">
        <g id="Desktop-News-Article" transform="translate(-345.000000, -1361.000000)" fill="#10308B">
            <g id="Group-3" transform="translate(200.000000, 1305.000000)">
                <g id="Group-2" transform="translate(1.000000, 56.000000)">
                    <path d="M154.079,13.52 L153.14,13.52 L153.14,18.547 L152.232,18.547 L152.232,13.52 L151.292,13.52 L151.292,12.666 L154.08,12.666 L154.08,13.52 L154.079,13.52 Z M159.474,15.241 L159.474,17.647 C159.474,18.184 159.274,18.601 158.738,18.601 C158.442,18.601 158.197,18.493 157.971,18.213 L157.971,18.546 L157.158,18.546 L157.158,12.666 L157.971,12.666 L157.971,14.559 C158.154,14.337 158.4,14.154 158.689,14.154 C159.279,14.154 159.474,14.653 159.474,15.241 L159.474,15.241 Z M158.644,15.29 C158.644,15.144 158.617,15.033 158.558,14.957 C158.46,14.828 158.279,14.814 158.138,14.886 L157.971,15.018 L157.971,17.721 L158.161,17.874 C158.293,17.94 158.485,17.945 158.574,17.829 C158.62,17.768 158.643,17.668 158.643,17.53 L158.643,15.29 L158.644,15.29 Z M156.297,9.431 C156.526,9.431 156.651,9.248 156.651,9 L156.651,6.881 C156.651,6.626 156.54,6.447 156.28,6.447 C156.043,6.447 155.927,6.632 155.927,6.881 L155.927,9 C155.928,9.24 156.064,9.431 156.297,9.431 L156.297,9.431 Z M155.564,17.501 C155.465,17.624 155.247,17.826 155.089,17.826 C154.917,17.826 154.874,17.708 154.874,17.534 L154.874,14.209 L154.069,14.209 L154.069,17.835 C154.069,18.715 154.666,18.72 155.1,18.471 C155.26,18.379 155.415,18.244 155.564,18.068 L155.564,18.547 L156.371,18.547 L156.371,14.209 L155.564,14.209 L155.564,17.501 L155.564,17.501 Z M168.8,5 L168.8,19 C168.8,21.761 166.562,24 163.8,24 L149.8,24 C147.039,24 144.8,21.761 144.8,19 L144.8,5 C144.8,2.239 147.039,0 149.8,0 L163.8,0 C166.562,0 168.8,2.239 168.8,5 L168.8,5 Z M158.234,9.427 C158.234,9.877 158.371,10.24 158.826,10.24 C159.082,10.24 159.437,10.107 159.805,9.671 L159.805,10.174 L160.652,10.174 L160.652,5.62 L159.805,5.62 L159.805,9.077 C159.701,9.206 159.472,9.418 159.307,9.418 C159.125,9.418 159.081,9.294 159.081,9.111 L159.081,5.62 L158.234,5.62 L158.234,9.427 L158.234,9.427 Z M155.057,6.806 L155.057,9.039 C155.057,9.842 155.476,10.259 156.297,10.259 C156.979,10.259 157.515,9.803 157.515,9.039 L157.515,6.806 C157.515,6.093 156.984,5.582 156.297,5.582 C155.552,5.582 155.057,6.075 155.057,6.806 L155.057,6.806 Z M151.902,4 L153.037,7.67 L153.037,10.174 L153.99,10.174 L153.99,7.67 L155.1,4 L154.131,4 L153.52,6.468 L152.862,4 L151.902,4 L151.902,4 Z M163.466,15.667 C163.452,12.689 163.234,11.551 161.355,11.422 C159.621,11.304 153.978,11.304 152.246,11.422 C150.37,11.55 150.148,12.684 150.135,15.667 C150.149,18.645 150.368,19.784 152.246,19.912 C153.978,20.03 159.621,20.03 161.355,19.912 C163.232,19.783 163.452,18.65 163.466,15.667 L163.466,15.667 Z M162.455,15.375 L162.455,16.479 L160.913,16.479 L160.913,17.297 C160.913,17.622 160.94,17.904 161.265,17.904 C161.605,17.904 161.625,17.675 161.625,17.297 L161.625,16.996 L162.455,16.996 L162.455,17.322 C162.455,18.158 162.097,18.664 161.247,18.664 C160.476,18.664 160.083,18.103 160.083,17.322 L160.083,15.375 C160.083,14.622 160.58,14.1 161.308,14.1 C162.081,14.099 162.455,14.591 162.455,15.375 L162.455,15.375 Z M161.625,15.367 C161.625,15.074 161.563,14.859 161.272,14.859 C160.973,14.859 160.913,15.069 160.913,15.367 L160.913,15.806 L161.625,15.806 L161.625,15.367 L161.625,15.367 Z" id="Shape"></path>
                </g>
            </g>
        </g>
    </g>
</svg>