<?xml version="1.0" encoding="UTF-8" standalone="no"?>
<svg width="25px" height="25px" viewBox="0 0 25 25" version="1.1" xmlns="http://www.w3.org/2000/svg" xmlns:xlink="http://www.w3.org/1999/xlink">
    <!-- Generator: Sketch 3.8.3 (29802) - http://www.bohemiancoding.com/sketch -->
    <title>Shape</title>
    <desc>Created with Sketch.</desc>
    <defs></defs>
    <g id="Symbols" stroke="none" stroke-width="1" fill="none" fill-rule="evenodd" fill-opacity="0.687528306">
        <g id="Footer-Desktop" transform="translate(-1129.000000, -328.000000)" fill="#FFFFFF">
            <g id="Footer">
                <g id="Group-2" transform="translate(985.000000, 327.881653)">
                    <path d="M154.079,14.52 L153.14,14.52 L153.14,19.547 L152.232,19.547 L152.232,14.52 L151.292,14.52 L151.292,13.666 L154.08,13.666 L154.08,14.52 L154.079,14.52 Z M159.474,16.241 L159.474,18.647 C159.474,19.184 159.274,19.601 158.738,19.601 C158.442,19.601 158.197,19.493 157.971,19.213 L157.971,19.546 L157.158,19.546 L157.158,13.666 L157.971,13.666 L157.971,15.559 C158.154,15.337 158.4,15.154 158.689,15.154 C159.279,15.154 159.474,15.653 159.474,16.241 L159.474,16.241 Z M158.644,16.29 C158.644,16.144 158.617,16.033 158.558,15.957 C158.46,15.828 158.279,15.814 158.138,15.886 L157.971,16.018 L157.971,18.721 L158.161,18.874 C158.293,18.94 158.485,18.945 158.574,18.829 C158.62,18.768 158.643,18.668 158.643,18.53 L158.643,16.29 L158.644,16.29 Z M156.297,10.431 C156.526,10.431 156.651,10.248 156.651,10 L156.651,7.881 C156.651,7.626 156.54,7.447 156.28,7.447 C156.043,7.447 155.927,7.632 155.927,7.881 L155.927,10 C155.928,10.24 156.064,10.431 156.297,10.431 L156.297,10.431 Z M155.564,18.501 C155.465,18.624 155.247,18.826 155.089,18.826 C154.917,18.826 154.874,18.708 154.874,18.534 L154.874,15.209 L154.069,15.209 L154.069,18.835 C154.069,19.715 154.666,19.72 155.1,19.471 C155.26,19.379 155.415,19.244 155.564,19.068 L155.564,19.547 L156.371,19.547 L156.371,15.209 L155.564,15.209 L155.564,18.501 L155.564,18.501 Z M168.8,6 L168.8,20 C168.8,22.761 166.562,25 163.8,25 L149.8,25 C147.039,25 144.8,22.761 144.8,20 L144.8,6 C144.8,3.239 147.039,1 149.8,1 L163.8,1 C166.562,1 168.8,3.239 168.8,6 L168.8,6 Z M158.234,10.427 C158.234,10.877 158.371,11.24 158.826,11.24 C159.082,11.24 159.437,11.107 159.805,10.671 L159.805,11.174 L160.652,11.174 L160.652,6.62 L159.805,6.62 L159.805,10.077 C159.701,10.206 159.472,10.418 159.307,10.418 C159.125,10.418 159.081,10.294 159.081,10.111 L159.081,6.62 L158.234,6.62 L158.234,10.427 L158.234,10.427 Z M155.057,7.806 L155.057,10.039 C155.057,10.842 155.476,11.259 156.297,11.259 C156.979,11.259 157.515,10.803 157.515,10.039 L157.515,7.806 C157.515,7.093 156.984,6.582 156.297,6.582 C155.552,6.582 155.057,7.075 155.057,7.806 L155.057,7.806 Z M151.902,5 L153.037,8.67 L153.037,11.174 L153.99,11.174 L153.99,8.67 L155.1,5 L154.131,5 L153.52,7.468 L152.862,5 L151.902,5 L151.902,5 Z M163.466,16.667 C163.452,13.689 163.234,12.551 161.355,12.422 C159.621,12.304 153.978,12.304 152.246,12.422 C150.37,12.55 150.148,13.684 150.135,16.667 C150.149,19.645 150.368,20.784 152.246,20.912 C153.978,21.03 159.621,21.03 161.355,20.912 C163.232,20.783 163.452,19.65 163.466,16.667 L163.466,16.667 Z M162.455,16.375 L162.455,17.479 L160.913,17.479 L160.913,18.297 C160.913,18.622 160.94,18.904 161.265,18.904 C161.605,18.904 161.625,18.675 161.625,18.297 L161.625,17.996 L162.455,17.996 L162.455,18.322 C162.455,19.158 162.097,19.664 161.247,19.664 C160.476,19.664 160.083,19.103 160.083,18.322 L160.083,16.375 C160.083,15.622 160.58,15.1 161.308,15.1 C162.081,15.099 162.455,15.591 162.455,16.375 L162.455,16.375 Z M161.625,16.367 C161.625,16.074 161.563,15.859 161.272,15.859 C160.973,15.859 160.913,16.069 160.913,16.367 L160.913,16.806 L161.625,16.806 L161.625,16.367 L161.625,16.367 Z" id="Shape"></path>
                </g>
            </g>
        </g>
    </g>
</svg>